<?xml version="1.0" standalone="no"?>
<!DOCTYPE svg PUBLIC "-//W3C//DTD SVG 20010904//EN"
 "http://www.w3.org/TR/2001/REC-SVG-20010904/DTD/svg10.dtd">
<svg version="1.0" xmlns="http://www.w3.org/2000/svg"
 width="120.000000pt" height="120.000000pt" viewBox="0 0 1000.000000 1000.000000"
 preserveAspectRatio="xMidYMid meet">
    <metadata>
        Created by potrace 1.13, written by Peter Selinger 2001-2015
    </metadata>
    <g transform="translate(0.000000,1000.000000) scale(0.100000,-0.100000)"
    fill="#eb1f2a" stroke="none">
        <path d="M4460 8829 c-228 -26 -458 -95 -675 -204 -311 -156 -550 -367 -744
-655 -444 -662 -422 -1521 56 -2169 69 -92 232 -262 329 -342 235 -192 546
-340 843 -401 l108 -22 -111 -32 c-61 -18 -148 -48 -193 -67 -371 -157 -644
-455 -767 -836 -30 -92 -66 -251 -66 -285 0 -6 19 23 42 64 167 305 401 592
596 733 363 262 857 322 1207 147 120 -59 199 -125 372 -308 223 -236 307
-317 396 -384 153 -113 301 -166 492 -175 143 -6 255 16 371 73 246 121 438
416 540 829 l25 100 -88 83 c-48 45 -89 82 -92 82 -3 0 -17 -44 -30 -98 -39
-161 -109 -360 -163 -465 -60 -117 -137 -205 -239 -273 -172 -114 -331 -123
-524 -29 -113 55 -222 138 -398 302 -357 332 -424 386 -564 449 -42 19 -113
46 -157 59 l-81 23 40 7 c307 54 566 156 801 314 614 412 933 1106 839 1824
-75 573 -422 1092 -932 1393 -303 179 -667 276 -1021 273 -75 -1 -171 -5 -212
-10z m475 -129 c109 -28 286 -116 382 -189 219 -165 408 -423 526 -717 298
-742 178 -1664 -289 -2225 -252 -303 -604 -470 -937 -445 -599 45 -1092 611
-1228 1411 -27 155 -36 466 -20 631 80 794 527 1417 1111 1545 116 26 339 21
455 -11z"/>
        <path d="M310 1745 l0 -1425 4690 0 4690 0 0 1425 0 1425 -4690 0 -4690 0 0
-1425z m5592 495 l3 -561 240 293 241 293 142 3 142 3 -207 -247 c-115 -136
-207 -250 -206 -255 2 -7 70 -114 409 -651 l94 -148 -129 0 -129 0 -193 308
c-106 169 -197 313 -204 320 -9 10 -32 -9 -108 -86 l-97 -99 0 -222 0 -221
-115 0 -115 0 0 915 0 915 115 0 115 0 2 -560z m-1751 497 c39 -26 69 -79 69
-122 0 -103 -119 -177 -208 -131 -54 28 -75 62 -80 125 -4 54 -2 60 29 95 18
21 42 42 53 46 41 17 102 11 137 -13z m-877 -480 c169 -63 278 -188 332 -382
25 -91 31 -349 10 -451 -36 -176 -148 -340 -281 -411 -169 -88 -386 -95 -547
-15 l-58 29 0 -284 0 -283 -115 0 -115 0 0 905 0 905 115 0 115 0 0 -50 0 -50
48 34 c105 75 148 86 307 82 98 -3 132 -8 189 -29z m1958 14 c81 -21 201 -72
229 -97 17 -15 14 -20 -33 -87 -28 -40 -54 -75 -57 -80 -4 -4 -34 6 -67 22
-132 67 -285 78 -407 31 -72 -27 -151 -103 -189 -180 -54 -112 -72 -279 -43
-415 38 -180 144 -283 325 -315 111 -20 228 7 338 76 29 19 54 34 57 34 2 0
14 -21 26 -47 11 -27 32 -72 45 -101 l24 -53 -82 -39 c-149 -69 -348 -95 -506
-67 -224 41 -405 209 -461 430 -55 211 -29 445 66 606 85 144 235 251 398 285
103 21 247 20 337 -3z m2226 -26 c61 -20 112 -42 112 -48 0 -13 -60 -207 -64
-207 -2 0 -30 16 -62 35 -124 75 -265 86 -347 28 -97 -68 -62 -211 66 -271
324 -152 381 -192 433 -299 33 -66 44 -192 25 -270 -28 -114 -130 -210 -263
-248 -86 -25 -286 -26 -378 -1 -103 27 -202 76 -195 95 4 9 23 60 42 113 l35
97 52 -30 c132 -78 238 -107 323 -90 100 20 143 67 143 159 0 104 -47 149
-268 261 -175 89 -242 143 -290 236 -23 43 -26 63 -27 145 0 112 19 165 83
227 85 82 186 114 352 109 102 -2 128 -7 228 -41z m-3278 -625 l0 -650 -120 0
-120 0 0 550 0 550 -85 0 -85 0 0 100 0 100 205 0 205 0 0 -650z"/>
        <path d="M2900 2081 c-41 -13 -105 -48 -139 -76 l-31 -27 0 -369 0 -370 23
-23 c27 -27 113 -61 177 -71 61 -9 173 11 242 42 63 28 124 87 157 150 47 93
68 251 51 386 -26 208 -108 314 -271 351 -71 17 -167 20 -209 7z"/>
    </g>
</svg>